HIERARCHY
ROOT Hips
{
	OFFSET -11.592635 103.599617 -3.621297
	CHANNELS 6 Xposition Yposition Zposition Xrotation Yrotation Zrotation
	JOINT Chest
	{
		OFFSET 0.644089 13.410934 -2.426150
		CHANNELS 3 Xrotation Yrotation Zrotation
		JOINT Chest2
		{
			OFFSET 5.461357 20.039253 5.260102
			CHANNELS 3 Xrotation Yrotation Zrotation
			JOINT Chest3
			{
				OFFSET 2.790704 14.642044 0.801450
				CHANNELS 3 Xrotation Yrotation Zrotation
				JOINT Neck
				{
					OFFSET 1.217833 17.095108 2.211345
					CHANNELS 3 Xrotation Yrotation Zrotation
					JOINT Head
					{
						OFFSET -2.664945 9.863586 2.331379
						CHANNELS 3 Xrotation Yrotation Zrotation
						End Site
						{
							OFFSET -2.656634 9.882156 2.261190
						}
					}
				}
				JOINT LeftCollar
				{
					OFFSET 5.789746 12.579773 3.167423
					CHANNELS 3 Xrotation Yrotation Zrotation
					JOINT LeftUpArm
					{
						OFFSET 13.826621 2.412170 -10.559612
						CHANNELS 3 Xrotation Yrotation Zrotation
						JOINT LeftLowArm
						{
							OFFSET 33.690353 0.596252 -2.081512
							CHANNELS 3 Xrotation Yrotation Zrotation
							JOINT LeftHand
							{
								OFFSET 8.056931 -17.731979 22.838791
								CHANNELS 3 Xrotation Yrotation Zrotation
								End Site
								{
									OFFSET 1.760895 -3.875443 4.991537
								}
							}
						}
					}
				}
				JOINT RightCollar
				{
					OFFSET -2.239110 12.826813 5.680496
					CHANNELS 3 Xrotation Yrotation Zrotation
					JOINT RightUpArm
					{
						OFFSET -17.496368 -1.377396 -0.690094
						CHANNELS 3 Xrotation Yrotation Zrotation
						JOINT RightLowArm
						{
							OFFSET -30.958385 -6.558731 11.759940
							CHANNELS 3 Xrotation Yrotation Zrotation
							JOINT RightHand
							{
								OFFSET -5.920818 -14.961960 25.338478
								CHANNELS 3 Xrotation Yrotation Zrotation
								End Site
								{
									OFFSET -1.294060 -3.270111 5.537960
								}
							}
						}
					}
				}
			}
		}
	}
	JOINT LeftUpLeg
	{
		OFFSET 9.907351 -0.715462 -1.323501
		CHANNELS 3 Xrotation Yrotation Zrotation
		JOINT LeftLowLeg
		{
			OFFSET 31.039944 9.563705 34.482544
			CHANNELS 3 Xrotation Yrotation Zrotation
			JOINT LeftFoot
			{
				OFFSET 1.031660 -27.124695 35.549316
				CHANNELS 3 Xrotation Yrotation Zrotation
				JOINT LeftToe
				{
					OFFSET 10.545326 3.238701 20.925255
					CHANNELS 3 Xrotation Yrotation Zrotation
					End Site
					{
						OFFSET 11.317806 16.678932 12.380608
					}
				}
			}
		}
	}
	JOINT RightUpLeg
	{
		OFFSET -9.907363 0.715271 1.323536
		CHANNELS 3 Xrotation Yrotation Zrotation
		JOINT RightLowLeg
		{
			OFFSET 0.369535 -45.238747 14.047497
			CHANNELS 3 Xrotation Yrotation Zrotation
			JOINT RightFoot
			{
				OFFSET 9.511599 -39.551498 -18.595394
				CHANNELS 3 Xrotation Yrotation Zrotation
				JOINT RightToe
				{
					OFFSET -4.917179 -16.955690 15.744292
					CHANNELS 3 Xrotation Yrotation Zrotation
					End Site
					{
						OFFSET -11.092939 -3.101701 20.661129
					}
				}
			}
		}
	}
}
MOTION
Frames: 16
Frame Time: 0.033333
-12.206085 103.031982 -4.102435 -1.954672 -0.666597 1.043193 -0.731656 0.351934 -0.840195 1.286372 -0.445390 -0.094487 -0.525521 -0.644408 -0.027365 -0.591128 0.650295 -0.678979 -0.000002 0.000000 0.000000 -1.330077 0.659406 -0.804278 -0.758581 -1.856671 0.998253 2.946194 3.893979 -3.795849 0.000005 0.000001 0.000001 0.340857 2.403729 0.735938 -1.033358 -0.030889 0.412176 1.230195 -1.422514 1.263903 -0.000004 0.000000 0.000003 1.183959 3.229979 1.507176 -2.711641 0.733851 0.837878 2.063852 0.121973 -0.504619 0.000002 -0.000001 -0.000000 0.563353 -0.611409 -1.499133 1.535046 0.346522 0.626709 -0.612939 0.448694 0.130724 0.000002 -0.000003 0.000001 
-12.227377 102.992973 -4.126908 -2.014839 -0.722662 1.106801 -0.844377 0.387944 -0.881907 1.823824 -0.535559 -0.224575 -0.993728 -0.633202 0.096469 -0.926290 0.657586 -0.704696 0.000001 -0.000001 -0.000000 -1.490625 0.875666 -0.812248 -0.821149 -2.058654 1.085800 3.273966 4.350174 -4.219437 0.000001 -0.000000 -0.000000 0.383082 2.536149 0.852713 -1.147207 0.342527 0.549478 1.266799 -1.789369 1.207889 -0.000003 -0.000002 0.000002 1.319267 3.574578 1.683921 -2.658959 0.482335 0.702318 2.128961 0.135166 -0.573362 0.000008 -0.000001 0.000001 0.339653 -0.661028 -1.766843 1.975723 0.405021 1.197307 -0.153059 -0.224217 -0.108095 0.000001 -0.000001 0.000003 
-12.254507 102.953049 -4.161849 -1.980301 -0.006845 0.941816 0.430626 0.078295 -0.520407 -1.043734 0.400544 -0.135967 1.137919 -0.816196 -0.072244 -0.220358 0.147861 -0.207340 -0.000002 0.000000 -0.000001 -1.295576 -0.278738 -0.719951 -1.077484 -1.682465 0.826236 2.832687 4.277534 -4.156880 -0.000000 0.000003 -0.000001 -0.288570 1.504967 0.677847 -1.798374 2.541411 1.100736 2.001204 -4.602437 1.234432 -0.000003 0.000000 0.000002 0.809303 2.726901 1.582522 -1.878991 0.773776 0.660623 1.662492 0.279135 -0.713319 0.000004 0.000001 -0.000001 0.196642 -0.557277 -2.006135 2.393478 0.757306 2.430234 0.243674 -1.435449 -0.195560 0.000001 -0.000004 0.000001 
-12.283455 102.919014 -4.186548 -2.772494 0.170636 1.067229 1.467517 -0.129055 -0.797176 -1.505334 0.633726 -0.213264 1.262390 -0.427191 0.146735 0.434582 -0.156118 0.094551 -0.000000 0.000000 -0.000002 -1.230103 -0.942911 -0.804757 -1.169874 -1.422578 0.862441 2.862671 4.459808 -4.424182 0.000000 -0.000003 0.000001 -0.523950 1.176797 0.762688 -2.012052 2.873669 1.208103 2.287748 -5.369864 1.481008 -0.000003 0.000002 -0.000001 1.239093 2.516269 1.182642 -1.328129 1.096265 0.667913 1.205469 0.105918 -0.539889 0.000003 0.000001 -0.000002 0.872532 -0.603590 -2.202396 2.752920 1.007054 2.814241 0.285247 -1.752972 -0.125278 0.000001 -0.000003 -0.000002 
-12.307554 102.883575 -4.215261 -2.184456 0.575705 1.059402 0.787977 -0.008614 -0.500714 -2.440956 1.037849 -0.226535 2.360638 -0.892901 -0.048777 0.281707 -0.226686 0.299649 -0.000000 0.000001 -0.000002 -1.007980 -1.119819 -1.031876 -0.895940 -1.777855 0.662416 2.189574 3.885048 -3.278979 0.000003 0.000001 0.000001 -0.582609 0.562065 0.689199 -1.802275 3.751634 1.169523 2.435195 -5.898374 1.069455 -0.000001 0.000000 -0.000002 0.625348 2.049363 1.267305 -1.211520 1.377015 0.814471 1.201570 -0.136800 -0.341646 0.000007 0.000000 -0.000005 0.324056 -0.562711 -2.318817 2.795607 1.000618 3.177533 0.430869 -2.315527 -0.351091 -0.000000 0.000003 0.000002 
-12.328998 102.850632 -4.241948 -1.933547 0.632823 1.093848 0.566289 0.017933 -0.519678 -2.169580 0.989506 -0.292824 2.098821 -0.846362 -0.058571 0.231787 -0.201808 0.388132 -0.000002 0.000000 -0.000002 -0.764909 -1.197077 -1.122001 -0.704670 -1.737494 0.569784 1.960902 3.658705 -2.647653 -0.000000 0.000002 -0.000000 -0.553607 0.211271 0.592414 -1.612776 4.199051 1.156776 2.322594 -5.781384 0.744819 -0.000001 -0.000001 0.000001 0.431018 1.839116 1.218945 -1.298849 1.715642 1.024617 1.028951 -0.193200 -0.251064 0.000000 0.000001 -0.000001 0.107619 -0.560316 -2.285263 2.843640 0.998986 3.083661 0.325297 -2.078177 -0.373557 0.000002 -0.000002 0.000004 
-12.351013 102.823036 -4.267049 -1.740936 0.749811 1.132118 0.219717 0.102305 -0.455617 -2.557259 1.068236 -0.230064 2.563480 -1.356222 -0.321276 0.613323 -0.171156 0.258493 0.000001 0.000001 -0.000001 -0.758699 -1.520596 -1.125759 -0.995382 -1.593972 0.351080 2.111057 4.191625 -2.862786 0.000005 0.000003 -0.000000 -0.694338 0.220345 0.585204 -1.664069 3.233538 1.370074 2.272326 -5.126827 1.337397 -0.000003 -0.000002 -0.000000 0.390501 2.065069 1.429386 -1.322863 1.356979 0.962858 0.793102 0.081624 -0.472637 -0.000000 -0.000002 0.000000 -0.355207 -0.542326 -2.355327 2.962199 1.107715 3.199168 0.304326 -2.099399 -0.434098 0.000000 -0.000001 0.000002 
-12.369439 102.801041 -4.289298 -2.461447 0.626172 1.287639 1.233578 -0.095230 -0.674816 -2.059883 0.977962 -0.364220 1.890469 -1.045397 -0.191011 0.735019 -0.228457 0.173249 0.000000 0.000000 -0.000000 -0.904947 -1.633571 -1.153936 -1.119760 -1.505862 0.193408 1.815699 3.833885 -2.896244 0.000007 -0.000000 0.000001 -0.721986 0.421686 0.586978 -1.841303 3.808907 1.421205 2.256073 -5.751506 1.016232 -0.000005 0.000000 0.000004 1.026979 2.249876 1.096900 -1.407805 1.554368 0.962206 0.695725 0.008549 -0.354904 0.000000 -0.000000 -0.000001 0.338991 -0.612897 -2.447121 2.859382 1.074613 3.025856 0.678615 -2.002511 -0.298880 0.000001 0.000001 0.000002 
-12.384794 102.784523 -4.314288 -1.804220 0.968724 1.105619 0.460781 0.044127 -0.304033 -1.866183 0.758727 -0.235385 1.760173 -1.325402 -0.535882 0.939658 -0.230432 0.103446 -0.000001 0.000001 -0.000000 -1.033014 -1.450689 -1.273829 -1.220955 -1.364556 0.403235 2.073728 3.889696 -3.553654 0.000009 -0.000001 -0.000001 -0.818673 0.339446 0.635011 -1.966161 3.509757 1.460896 2.359814 -5.688965 1.427067 0.000001 -0.000001 0.000002 0.399793 1.993440 1.351748 -1.614420 1.549698 1.031809 0.955868 -0.089166 -0.376699 0.000005 -0.000002 -0.000001 -0.113718 -0.552079 -2.280389 2.415387 0.940063 3.056961 0.897450 -2.325002 -0.398017 0.000001 -0.000003 0.000001 
-12.399693 102.765388 -4.327882 -1.732047 0.380907 1.352068 -0.111202 0.202342 -0.680510 -0.230322 0.241507 -0.248478 0.432699 -0.857321 -0.445679 -0.554576 -0.067098 0.044451 -0.000003 0.000001 0.000000 -1.063229 -0.782082 -1.332775 -0.977722 -1.663928 0.452344 2.474408 4.157654 -3.708288 0.000004 -0.000002 -0.000001 -0.444032 0.548013 0.682426 -1.433457 3.074854 1.219451 1.704529 -4.431387 0.855051 0.000001 -0.000003 0.000001 0.941045 3.016304 1.759495 -2.226447 0.810676 1.062214 1.441795 0.126931 -0.426887 0.000004 -0.000001 -0.000000 -0.224721 -0.522765 -2.327519 2.445830 0.934639 2.391477 -0.018165 -1.266071 -0.235859 0.000001 -0.000001 0.000002 
-12.410974 102.749146 -4.338327 -1.880265 0.141404 1.427811 -0.751250 0.348805 -0.768831 1.359469 -0.198207 -0.394041 -0.736971 -0.926850 -0.359072 -0.544584 0.149284 -0.213427 0.000001 0.000000 -0.000002 -1.159449 -0.109779 -1.197533 -0.927144 -1.362109 0.541787 2.799958 4.021521 -4.205613 0.000006 -0.000000 0.000001 0.035321 1.712971 0.671252 -1.088778 2.355255 1.250267 1.258659 -3.948087 0.388285 -0.000000 0.000002 -0.000000 1.166626 3.381888 1.810234 -2.342868 0.675846 1.013856 1.879061 -0.155129 -0.421748 -0.000001 -0.000001 -0.000000 -0.397374 -0.558325 -2.301113 2.491473 0.827225 2.005435 -0.419373 -0.763402 -0.189458 0.000001 0.000001 0.000001 
-12.422837 102.738228 -4.362682 -2.391325 0.381540 1.369300 0.689537 0.032066 -0.691617 -0.673009 0.424767 -0.312340 0.571905 -0.990646 -0.440225 0.658467 -0.092303 -0.082280 -0.000001 0.000000 0.000000 -0.993639 -1.331905 -1.339826 -1.262127 -1.228763 0.390819 2.402007 4.353895 -4.019796 0.000005 0.000002 -0.000001 -0.603986 0.578729 0.734244 -1.615607 3.289820 1.599757 1.922708 -4.975252 1.199931 -0.000002 0.000000 -0.000001 1.132763 2.633762 1.279045 -1.683048 1.654900 1.090098 1.418019 -0.628549 -0.067020 0.000002 0.000001 0.000001 -0.213723 -0.579665 -2.376752 2.827052 0.994326 2.455976 0.747964 -1.249146 -0.232664 -0.000000 -0.000001 0.000003 
-12.434285 102.729492 -4.380394 -1.930373 -0.176107 1.516079 -0.545933 0.314976 -0.952160 1.103277 -0.149244 -0.332796 -0.484740 -0.383212 -0.353787 -0.384104 -0.047529 -0.025459 -0.000003 0.000002 -0.000001 -0.906868 -1.028044 -1.556435 -0.848169 -1.500956 0.492194 1.906438 3.824701 -2.960127 -0.000001 -0.000001 0.000002 -0.423090 0.224586 0.761077 -1.091820 3.000555 1.431173 1.296123 -3.582391 0.744724 -0.000000 -0.000002 -0.000002 1.468905 3.628882 1.819489 -2.858174 0.659548 1.205355 1.886454 0.061334 -0.639994 0.000002 -0.000001 -0.000001 -0.150044 -0.548384 -2.409790 2.526367 0.923760 2.032109 -0.339402 -0.832411 -0.167983 0.000001 0.000001 0.000001 
-12.443336 102.714272 -4.403870 -2.168052 -0.120963 1.357473 -0.188575 0.201639 -0.739767 -1.041919 0.437811 -0.150578 1.298818 -1.414343 -0.721337 0.782312 0.062088 -0.114748 -0.000002 0.000000 -0.000002 -0.924305 -1.128145 -1.388602 -0.860243 -1.410758 0.313744 1.880902 4.233085 -2.680628 0.000005 0.000000 -0.000001 -0.718801 -0.172246 0.626993 -1.100997 3.270608 1.961492 1.790452 -3.771429 1.424486 -0.000001 -0.000003 -0.000000 1.361549 3.221885 1.624380 -2.444089 1.104698 1.222077 1.562258 0.042276 -0.612968 0.000005 -0.000002 0.000002 0.090478 -0.560378 -2.427087 2.713632 1.003391 2.609811 -0.056071 -1.319322 -0.234841 0.000001 -0.000006 0.000002 
-12.453661 102.701950 -4.424970 -2.804896 0.034781 1.353262 0.596435 0.034197 -0.885203 -2.503475 0.992877 -0.168629 2.613682 -1.810978 -0.519998 1.088063 -0.020116 -0.005568 -0.000001 -0.000000 0.000000 -1.028265 -1.081720 -1.362207 -0.929045 -1.165172 0.213584 1.838552 3.968628 -2.922603 0.000001 0.000000 -0.000001 -0.714336 0.016442 0.638164 -1.336787 3.918442 2.034191 2.104054 -4.890514 1.360912 -0.000002 0.000001 0.000002 1.568469 2.652188 1.056902 -1.778328 1.924708 1.281111 1.002337 -0.335263 -0.203797 0.000005 0.000001 0.000001 0.485522 -0.611616 -2.537940 2.969087 1.120752 2.945356 0.593171 -1.493263 -0.154533 -0.000000 0.000003 -0.000001 
-12.465023 102.691681 -4.450962 -2.751763 0.042582 1.223973 0.394391 0.064768 -0.889339 -2.030895 0.774373 -0.160044 2.369739 -1.487287 -0.453376 1.234815 -0.154992 0.052969 0.000001 0.000000 -0.000002 -1.037343 -1.246019 -1.386866 -1.030276 -1.122814 0.129240 1.877167 4.211954 -2.934364 0.000001 0.000001 -0.000001 -0.775627 0.008688 0.711022 -1.541562 4.112186 2.068641 2.136828 -5.429751 1.346501 0.000001 -0.000003 0.000000 1.574398 2.644631 1.049378 -1.614830 1.956186 1.138730 0.724102 -0.439466 -0.067166 0.000000 0.000002 0.000001 0.564268 -0.616873 -2.422768 2.767987 0.972095 2.972162 0.520347 -1.363329 -0.161174 0.000001 -0.000004 0.000001 
